# xmcd
#
# Track frame offsets: 
#        150
#        74787
#        89540
#        106592
#        125157
#        138280
#        152770
#        170982
#        187917
#        206595
#        224217
#        242237
#        258055
#        271810
#        289847
#        308807
#
# Disc length: 4386 seconds
#
# Revision: 1
# Processed by: cddbd v1.5.2PL0 Copyright (c) Steve Scherf et al.
# Submitted via: ExactAudioCopy v1.3
#
DISCID=fb112010
DTITLE=Various Artist - パラパラ★パニック2000 Vol.6
DYEAR=2000
DGENRE=Dance
TTITLE0=Non-Stop Mega Mix Parapara Panic 2000
TTITLE1=Santa Man - Last Christmas
TTITLE2=Ganguro Sisters - Angel
TTITLE3=Sexy Bazooka.com - Let's Para Para
TTITLE4=Christmas Dinner - Santa Claus Is Comin' To Town
TTITLE5=French Toast - The Little Drummer Boy
TTITLE6=Spaceship - Wake Me Up
TTITLE7=Battery Honey - If
TTITLE8=Snow Man - I Wanna...
TTITLE9=Tropical Girl - Winter Fantasy
TTITLE10=Melon - Stardust
TTITLE11=Sky Divers - Private Eyes
TTITLE12=Scramble Egg - Christmas (Baby Please Come Home)
TTITLE13=Night Cruising - Fire
TTITLE14=P-Factory - Ai No Corida
TTITLE15=Birthday - すこぶるゴージャス
EXTD=
EXTT0=
EXTT1=
EXTT2=
EXTT3=
EXTT4=
EXTT5=
EXTT6=
EXTT7=
EXTT8=
EXTT9=
EXTT10=
EXTT11=
EXTT12=
EXTT13=
EXTT14=
EXTT15=
PLAYORDER=
